<svg xmlns="http://www.w3.org/2000/svg" xmlns:xlink="http://www.w3.org/1999/xlink" viewBox="0 0 933 933" width="933.000000" height="933.000000" fill="none"><g id="Group 1"><rect id="Rectangle 2" width="933.000000" height="933.000000" x="0.000000" y="0.000000"></rect><g id="Layer_3"><g id="Layer_1-2"><path id="Vector 1" d="M659.488 227.881C656.736 223.636 653.475 219.862 649.707 216.559C647.895 215.559 645.969 215.187 643.931 215.443L624.138 216.32C622.776 216.311 621.467 216.577 620.21 217.117C619.286 217.596 619.132 218.154 619.671 218.712C623.256 222.133 626.337 225.986 628.913 230.272C628.913 230.831 630.068 231.229 631.377 231.468C632.763 231.717 634.15 231.717 635.536 231.468L655.56 229.874C658.41 229.794 660.181 228.837 659.488 227.881ZM692.913 262.722C690.371 255.634 687.085 248.936 683.055 242.63C681.473 240.992 679.573 240.328 677.356 240.637L657.485 242.232C656.019 242.249 654.71 242.728 653.558 243.667C652.635 244.443 652.455 245.373 653.019 246.457C656.79 252.991 659.896 259.848 662.338 267.027C662.806 268.122 663.602 268.813 664.725 269.1C666.078 269.602 667.465 269.735 668.884 269.499L688.908 266.629C691.835 266.15 693.606 264.476 692.913 262.722L692.913 262.722ZM722.795 319.17C720.367 307.374 717.081 295.84 712.937 284.568C711.931 281.832 710.031 280.69 707.238 281.139L687.368 283.85C685.653 284.031 684.344 284.882 683.44 286.401C682.551 287.92 682.397 289.514 682.978 291.185C686.777 302.784 689.858 314.584 692.22 326.585C692.49 328.155 693.286 329.351 694.607 330.172C695.882 331.061 697.268 331.327 698.766 330.97L718.79 325.867C722.336 325.052 723.671 322.819 722.795 319.17L722.795 319.17ZM738.968 377.053C739.545 387.683 739.545 398.314 738.968 408.944L627.064 408.227C634.073 369.638 637.307 328.498 628.142 293.497C641.158 323.635 640.388 362.782 638.54 396.347L738.044 365.971L760.379 359.194L800.196 347.075C772.624 211.696 695.531 153.175 579.006 180.601L571.305 182.595C640.157 183.312 684.21 181 733.731 241.594C752.061 264.077 763.767 295.092 772.239 331.608L663.724 362.941C647.499 232.452 585.886 178.05 478.886 199.736C636.614 203.244 619.671 334.717 592.561 430.312L762.535 430.312C763.997 410.223 763.74 390.158 761.765 370.117L738.968 377.053Z" fill="rgb(242,135,55)" fill-rule="evenodd"></path><path id="Vector 2" d="M495.29 238.166C422.664 222.22 327.319 288.714 323.93 445.46L341.181 445.46C341.863 429.94 343.327 414.499 345.571 399.138C347.628 384.121 350.991 369.424 355.66 355.048C364.79 354.583 373.826 355.328 382.77 357.28C378.061 372.326 374.518 387.66 372.142 403.284L370.986 411.257L393.321 411.257C395.357 396.233 398.206 381.377 401.87 366.688C405.24 352.356 409.527 338.323 414.732 324.591C424.443 323.164 434.122 323.376 443.766 325.229C437.235 340.693 432.1 356.639 428.363 373.067C423.127 395.517 419.79 418.267 418.351 441.314L447.309 394.434C449.844 380.068 453.258 365.929 457.552 352.018C462.882 333.512 470.815 316.29 481.35 300.354C492.53 299.925 503.466 301.414 514.159 304.819C501.605 314.227 491.054 335.355 483.353 360.629C479.991 371.526 477.218 382.582 475.035 393.796L492.749 404.24C501.477 344.125 525.763 308.088 565.606 296.128C559.6 280.759 550.333 267.91 537.805 257.583C525.276 247.255 511.104 240.783 495.29 238.166ZM369.677 424.492C369.061 431.189 368.522 438.205 368.137 445.38L390.395 445.38C390.78 438.285 391.319 431.348 392.012 424.492L369.677 424.492Z" fill="rgb(255,255,255)" fill-rule="evenodd"></path><path id="Vector 3" d="M392.32 505.416L401.254 490.826C397.979 495.494 395.001 500.358 392.32 505.416Z" fill="rgb(44,138,185)" fill-rule="nonzero"></path><path id="Vector 4" d="M341.335 439.959L63 439.959L63 488.673L259.467 488.673L259.467 555.007C231.973 523.116 194.389 517.296 151.106 525.827C104.897 541.772 87.9531 571.432 94.2684 612.731C96.9581 632.8 105.918 649.198 121.147 661.924C139.4 676.673 161.272 680.182 187.073 671.571C202.658 666.751 212.208 656.121 215.722 639.679C217.379 631.336 216.352 623.363 212.642 615.761C205.335 626.227 195.503 632.34 183.145 634.098C175.16 635.401 167.817 633.712 161.116 629.032C154.416 624.351 150.155 617.934 148.334 609.781C146.538 599.951 149.465 591.978 157.113 585.862C168.407 575.52 181.397 572.118 196.083 575.657C217.417 580.84 238.519 599.576 259.467 629.713L259.467 693.496L318.308 693.496L318.308 488.673L341.412 488.673L341.335 439.959Z" fill="rgb(255,255,255)" fill-rule="nonzero"></path><path id="Vector 5" d="M893 439.959L646.549 439.959L646.549 488.673L781.404 488.673L668.576 538.982L668.576 621.103L796.191 693.735L876.057 693.735L876.057 488.673L893 488.673L893 439.959ZM817.216 632.823L811.286 632.823L727.416 584.985L727.416 579.006L804.432 544.483L816.908 544.483L817.216 632.823Z" fill="rgb(255,255,255)" fill-rule="nonzero"></path><path id="Vector 6" d="M501.991 596.546C501.911 597.29 501.911 598.034 501.991 598.779C502.128 599.453 502.359 600.091 502.684 600.692C503.015 601.221 503.426 601.673 503.916 602.047C504.516 602.387 505.158 602.547 505.841 602.526C507.571 602.445 509.239 602.073 510.847 601.41C515.06 599.824 518.5 597.166 521.167 593.437C522.543 591.55 523.467 589.45 523.94 587.138L522.015 587.776L520.089 587.776C518.873 587.793 517.718 587.528 516.624 586.979C515.511 586.53 514.536 585.865 513.697 584.985C512.839 584.05 512.172 582.987 511.695 581.796C511.21 580.487 510.979 579.132 511.001 577.73C510.979 576.415 511.185 575.14 511.618 573.903C512.066 572.692 512.708 571.602 513.543 570.634C514.453 569.636 515.506 568.839 516.701 568.242C522.519 565.583 527.114 567.045 530.486 572.628C531.41 574.066 532.026 575.634 532.335 577.331C532.688 578.905 532.868 580.5 532.874 582.115C532.903 584.975 532.492 587.766 531.642 590.487C530.865 593.015 529.761 595.381 528.33 597.583C526.882 599.679 525.214 601.566 523.324 603.243C521.476 604.865 519.474 606.247 517.317 607.389C515.207 608.512 512.999 609.362 510.693 609.94C508.549 610.538 506.367 610.83 504.147 610.818L501.991 610.818C500.977 610.666 499.976 610.453 498.987 610.18C497.856 609.769 496.752 609.291 495.675 608.745C494.485 608.077 493.432 607.227 492.518 606.193C491.568 604.988 490.823 603.659 490.284 602.207C489.689 600.343 489.406 598.429 489.437 596.466L489.437 564.655L476.575 564.655L476.575 557.479L489.437 557.479C489.555 556.389 489.555 555.3 489.437 554.21C489.243 553.251 488.909 552.348 488.436 551.499C488.068 550.736 487.554 550.098 486.895 549.586C486.234 549.165 485.515 548.952 484.739 548.948C483.639 548.95 482.561 549.11 481.504 549.426C480.419 549.771 479.392 550.25 478.424 550.862L475.651 541.453C477.357 540.761 479.102 540.203 480.888 539.779C482.383 539.418 483.897 539.232 485.432 539.221C490.177 538.881 494.259 540.422 497.678 543.845C500.935 547.773 502.372 552.318 501.991 557.479L529.023 557.479L529.023 564.655L501.991 564.655L501.991 596.546Z" fill="rgb(242,135,55)" fill-rule="nonzero"></path><path id="Vector 7" d="M500.296 693.656C487.342 693.632 474.706 691.545 462.388 687.395C450.07 683.246 438.667 677.235 428.18 669.363C417.693 661.491 408.631 652.139 400.992 641.308C393.354 630.477 387.511 618.693 383.463 605.954L449.004 605.954C454.757 613.886 461.87 620.166 470.345 624.794C478.819 629.422 487.842 631.955 497.414 632.393C506.986 632.831 516.19 631.132 525.025 627.296C533.861 623.46 541.482 617.854 547.889 610.479C554.296 603.104 558.874 594.666 561.624 585.164C564.375 575.663 565.033 566.008 563.6 556.201C562.167 546.394 558.779 537.374 553.437 529.139C548.095 520.905 541.311 514.247 533.083 509.163C524.856 504.08 515.974 501.059 506.438 500.1C496.901 499.141 487.624 500.336 478.605 503.686C469.587 507.035 461.691 512.218 454.919 519.234C448.146 526.25 443.145 534.427 439.916 543.766L390.626 507.888L392.32 505.177L401.254 490.587L458.168 398.42L477.499 409.742L485.201 414.366L500.604 423.535L490.977 439.481C499.403 438.509 507.836 438.438 516.276 439.269C524.715 440.099 532.984 441.813 541.082 444.41C549.18 447.007 556.937 450.433 564.352 454.687C571.767 458.942 578.685 463.935 585.104 469.668C591.524 475.4 597.31 481.751 602.464 488.72C607.617 495.689 612.029 503.129 615.699 511.04C619.369 518.952 622.219 527.168 624.251 535.688C626.283 544.209 627.453 552.855 627.761 561.625C628.07 570.396 627.51 579.107 626.081 587.758C624.652 596.409 622.386 604.818 619.281 612.984C616.176 621.151 612.298 628.903 607.647 636.241C602.996 643.579 597.671 650.348 591.671 656.548C585.67 662.749 579.122 668.249 572.025 673.05C564.928 677.851 557.432 681.851 549.538 685.051C541.643 688.25 533.517 690.581 525.157 692.044C516.798 693.507 508.383 694.071 499.911 693.735L500.296 693.656Z" fill="rgb(242,135,55)" fill-rule="nonzero"></path><ellipse id="Oval 1" rx="16.327387" ry="16.902494" cx="711.088623" cy="693.097534" fill="rgb(255,255,255)"></ellipse><path id="Vector 8" d="M381.923 590.965L381.923 559.074L394.168 559.074C396.289 559.02 398.292 559.498 400.176 560.509C401.804 561.392 403.062 562.668 403.949 564.336C404.856 566.106 405.293 567.993 405.259 569.996C405.296 571.99 404.834 573.85 403.872 575.577C403.003 577.264 401.745 578.54 400.098 579.404C398.215 580.301 396.239 580.699 394.168 580.6L386.467 580.6L386.467 575.179L393.244 575.179C394.318 575.208 395.345 574.995 396.325 574.541C397.137 574.106 397.753 573.468 398.173 572.628C398.628 571.756 398.834 570.826 398.789 569.837C398.842 568.846 398.637 567.916 398.173 567.047C397.753 566.206 397.137 565.568 396.325 565.133C395.316 564.688 394.264 564.475 393.167 564.495L388.777 564.495L388.777 590.965L381.923 590.965Z" fill="rgb(242,135,55)" fill-rule="nonzero"></path><path id="Vector 9" d="M437.99 574.94C438.044 578.077 437.402 581.053 436.065 583.869C434.838 586.251 433.092 588.111 430.828 589.45C428.434 590.835 425.867 591.473 423.126 591.364C420.395 591.433 417.828 590.795 415.425 589.45C413.158 588.097 411.438 586.21 410.265 583.789C407.56 577.863 407.56 571.937 410.265 566.01C411.438 563.589 413.158 561.702 415.425 560.349C417.828 559.004 420.395 558.367 423.126 558.436C425.867 558.327 428.434 558.964 430.828 560.349C433.114 561.701 434.859 563.588 436.065 566.01C437.421 568.821 438.063 571.798 437.99 574.94ZM431.367 574.94C431.406 572.956 431.072 571.043 430.366 569.199C429.789 567.715 428.865 566.519 427.593 565.611C426.295 564.879 424.909 564.56 423.434 564.655C421.956 564.622 420.595 565.02 419.352 565.851C418.043 566.727 417.118 567.923 416.58 569.438C415.836 571.275 415.503 573.189 415.579 575.179C415.509 577.142 415.843 579.029 416.58 580.84C417.118 582.355 418.043 583.551 419.352 584.427C420.595 585.258 421.956 585.656 423.434 585.623C424.933 585.644 426.319 585.245 427.593 584.427C428.905 583.453 429.829 582.177 430.366 580.6C431.064 578.783 431.398 576.896 431.367 574.94L431.367 574.94Z" fill="rgb(242,135,55)" fill-rule="nonzero"></path><path id="Vector 10" d="M459.632 568.083C459.548 566.859 459.035 565.876 458.091 565.133C456.947 564.346 455.689 564.001 454.318 564.096C453.388 564.071 452.49 564.23 451.622 564.575C450.933 564.823 450.368 565.249 449.928 565.851C449.545 566.398 449.365 567.009 449.389 567.684C449.226 568.189 449.226 568.694 449.389 569.199C449.671 569.651 450.03 570.023 450.467 570.315L452.007 571.113L453.933 571.671L456.705 572.388C457.995 572.68 459.253 573.079 460.479 573.584C461.524 574.108 462.5 574.746 463.406 575.498C464.203 576.283 464.845 577.186 465.331 578.208C465.818 579.351 466.049 580.547 466.024 581.796C466.035 583.65 465.547 585.351 464.561 586.899C463.52 588.432 462.159 589.549 460.479 590.247C458.388 591.025 456.231 591.398 454.01 591.364C451.963 591.338 449.986 590.939 448.079 590.168C446.263 589.497 444.825 588.328 443.766 586.66C442.608 584.904 442.069 582.964 442.149 580.839L448.079 580.839C448.155 582.966 449.157 584.401 451.083 585.145C453.06 585.858 455.036 585.858 457.013 585.145C457.798 584.873 458.44 584.394 458.939 583.71C459.409 583.135 459.64 582.47 459.632 581.717C459.639 581.029 459.433 580.418 459.016 579.883C458.526 579.308 457.935 578.883 457.244 578.607L454.395 577.65L451.006 576.773C448.706 576.3 446.652 575.29 444.845 573.744C443.222 572.229 442.452 570.343 442.534 568.083C442.5 566.205 443.013 564.504 444.075 562.98C445.154 561.439 446.541 560.296 448.233 559.552C450.182 558.722 452.211 558.324 454.318 558.356C456.404 558.304 458.406 558.703 460.325 559.552C461.975 560.301 463.31 561.443 464.33 562.98C465.381 564.479 465.869 566.153 465.793 568.003L459.632 568.083Z" fill="rgb(242,135,55)" fill-rule="nonzero"></path></g></g></g></svg>